<svg width="54" height="54" viewBox="0 0 54 54" fill="none" xmlns="http://www.w3.org/2000/svg">
<rect width="54" height="54" rx="10" fill="#EC7760"/>
<path d="M28.0907 30.54C28.264 30.54 28.3974 30.62 28.4907 30.78C28.5974 30.94 28.6507 31.16 28.6507 31.44C28.6507 31.96 28.524 32.3733 28.2707 32.68C27.6307 33.4533 26.984 34.0533 26.3307 34.48C25.6774 34.8933 24.904 35.1 24.0107 35.1C23.144 35.1 22.404 34.8667 21.7907 34.4C21.1907 33.9333 20.6174 33.1333 20.0707 32C19.6307 31.0933 19.284 30.4267 19.0307 30C18.7774 29.56 18.524 29.2467 18.2707 29.06C18.0307 28.8733 17.7307 28.76 17.3707 28.72C17.3174 29 17.164 29.88 16.9107 31.36C16.804 32.0267 16.7374 32.4333 16.7107 32.58C16.5774 33.3933 16.3107 34.02 15.9107 34.46C15.5107 34.8867 14.904 35.1 14.0907 35.1C13.1974 35.1 12.404 34.84 11.7107 34.32C11.0307 33.7867 10.504 33.0533 10.1307 32.12C9.75737 31.1733 9.5707 30.1 9.5707 28.9C9.5707 26.66 9.95737 24.7267 10.7307 23.1C11.5174 21.4733 12.6107 20.2333 14.0107 19.38C15.424 18.5133 17.0507 18.08 18.8907 18.08C20.1707 18.08 21.244 18.2733 22.1107 18.66C22.9774 19.0467 23.6174 19.58 24.0307 20.26C24.4574 20.94 24.6707 21.7067 24.6707 22.56C24.6707 23.3067 24.4907 24.04 24.1307 24.76C23.784 25.4667 23.2574 26.0933 22.5507 26.64C21.844 27.1867 20.984 27.5933 19.9707 27.86C20.6107 28.0333 21.104 28.3133 21.4507 28.7C21.7974 29.0867 22.144 29.6533 22.4907 30.4C22.864 31.2 23.2307 31.7867 23.5907 32.16C23.964 32.5333 24.3907 32.72 24.8707 32.72C25.2974 32.72 25.704 32.58 26.0907 32.3C26.4774 32.0067 26.964 31.5133 27.5507 30.82C27.7107 30.6333 27.8907 30.54 28.0907 30.54ZM14.6107 28.7C14.1574 28.7 13.844 28.5933 13.6707 28.38C13.5107 28.1667 13.4307 27.9267 13.4307 27.66C13.4307 27.34 13.5307 27.0867 13.7307 26.9C13.944 26.7133 14.184 26.62 14.4507 26.62H14.9507C15.164 25.3133 15.364 24.1867 15.5507 23.24C15.724 22.3733 16.284 21.94 17.2307 21.94C17.9907 21.94 18.3707 22.28 18.3707 22.96C18.3707 23.1067 18.364 23.22 18.3507 23.3L17.7507 26.62C18.4707 26.58 19.124 26.4067 19.7107 26.1C20.3107 25.7933 20.784 25.3667 21.1307 24.82C21.4907 24.2733 21.6707 23.6533 21.6707 22.96C21.6707 22.12 21.384 21.46 20.8107 20.98C20.2374 20.5 19.3974 20.26 18.2907 20.26C16.984 20.26 15.8374 20.5867 14.8507 21.24C13.8774 21.88 13.1174 22.84 12.5707 24.12C12.024 25.3867 11.7507 26.9333 11.7507 28.76C11.7507 29.6133 11.8374 30.3467 12.0107 30.96C12.184 31.5733 12.3974 32.0333 12.6507 32.34C12.904 32.6467 13.144 32.8 13.3707 32.8C13.544 32.8 13.684 32.7133 13.7907 32.54C13.9107 32.3667 14.004 32.0867 14.0707 31.7L14.6107 28.7ZM45.5484 30.54C45.7217 30.54 45.855 30.62 45.9484 30.78C46.055 30.94 46.1084 31.16 46.1084 31.44C46.1084 31.96 45.9817 32.3733 45.7284 32.68C44.4084 34.2933 43.0017 35.1 41.5084 35.1C40.215 35.1 39.1817 34.6 38.4084 33.6C37.635 32.6 37.2484 31.1667 37.2484 29.3C37.2484 28.8467 37.2684 28.3933 37.3084 27.94C36.4284 28.1 35.4684 28.22 34.4284 28.3C33.735 28.3533 33.2617 28.3867 33.0084 28.4C32.7417 29.76 32.3684 31.4267 31.8884 33.4C31.6084 34.56 31.075 35.14 30.2884 35.14C29.435 35.14 29.0084 34.7533 29.0084 33.98C29.0084 33.8067 29.0417 33.5667 29.1084 33.26C29.5617 31.4333 29.9217 29.8867 30.1884 28.62L29.2284 28.66C28.7884 28.66 28.4684 28.5867 28.2684 28.44C28.0684 28.28 27.9684 28.0267 27.9684 27.68C27.9684 27.24 28.095 26.92 28.3484 26.72C28.6017 26.5067 29.0217 26.3867 29.6084 26.36L30.6684 26.32C31.015 24.44 31.1884 23.0067 31.1884 22.02C31.1884 21.3933 31.095 20.9667 30.9084 20.74C30.7217 20.5133 30.475 20.4 30.1684 20.4C29.235 20.4 28.1817 21.18 27.0084 22.74C26.835 22.9667 26.6417 23.08 26.4284 23.08C26.2417 23.08 26.0817 22.9933 25.9484 22.82C25.815 22.6467 25.7484 22.4267 25.7484 22.16C25.7484 21.7467 25.915 21.3067 26.2484 20.84C26.835 20.0267 27.575 19.36 28.4684 18.84C29.3617 18.3067 30.2684 18.04 31.1884 18.04C32.055 18.04 32.7217 18.34 33.1884 18.94C33.6684 19.5267 33.9084 20.4467 33.9084 21.7C33.9084 22.8067 33.7484 24.3067 33.4284 26.2L35.3884 26.1C36.2284 26.06 36.9484 25.9933 37.5484 25.9C37.7884 24.4333 38.155 23.06 38.6484 21.78C39.1417 20.5 39.755 19.46 40.4884 18.66C41.2217 17.86 42.0417 17.46 42.9484 17.46C43.615 17.46 44.1417 17.7267 44.5284 18.26C44.915 18.78 45.1084 19.4667 45.1084 20.32C45.1084 23.6267 43.4217 25.92 40.0484 27.2C40.0084 27.7333 39.9884 28.2867 39.9884 28.86C39.9884 30.26 40.1617 31.2533 40.5084 31.84C40.855 32.4267 41.3417 32.72 41.9684 32.72C42.515 32.72 43.015 32.58 43.4684 32.3C43.9217 32.0067 44.435 31.5133 45.0084 30.82C45.1684 30.6333 45.3484 30.54 45.5484 30.54ZM42.8484 19.2C42.555 19.2 42.2417 19.4667 41.9084 20C41.5884 20.5333 41.2817 21.26 40.9884 22.18C40.695 23.1 40.4617 24.1067 40.2884 25.2C41.355 24.76 42.1417 24.1333 42.6484 23.32C43.155 22.5067 43.4084 21.46 43.4084 20.18C43.4084 19.8733 43.355 19.6333 43.2484 19.46C43.1417 19.2867 43.0084 19.2 42.8484 19.2Z" fill="white"/>
</svg>
